<svg width="63" height="63" viewBox="0 0 63 63" fill="none" xmlns="http://www.w3.org/2000/svg">
<path d="M42 57.75V51.8438C39.55 51.0563 37.4937 49.6563 35.8312 47.6438C34.1687 45.6313 33.2063 43.3125 32.9438 40.6875H38.1938C38.5438 42.5688 39.4301 44.1324 40.8529 45.3784C42.2756 46.6244 43.9705 47.2483 45.9375 47.25H53.8125C54.9062 47.25 55.8364 47.6333 56.6029 48.3998C57.3694 49.1663 57.7517 50.0955 57.75 51.1875V57.75H42ZM49.875 44.625C48.4312 44.625 47.1957 44.1114 46.1685 43.0841C45.1412 42.0569 44.6267 40.8205 44.625 39.375C44.6233 37.9295 45.1377 36.694 46.1685 35.6685C47.1992 34.643 48.4348 34.1285 49.875 34.125C51.3152 34.1215 52.5516 34.636 53.5841 35.6685C54.6166 36.701 55.1303 37.9365 55.125 39.375C55.1197 40.8135 54.6061 42.0499 53.5841 43.0841C52.5621 44.1184 51.3257 44.632 49.875 44.625ZM23.625 36.75C23.625 30.1875 25.9219 24.6094 30.5156 20.0156C35.1094 15.4219 40.6875 13.125 47.25 13.125V18.375C42.1312 18.375 37.7895 20.1583 34.2248 23.7248C30.66 27.2913 28.8767 31.633 28.875 36.75H23.625ZM34.125 36.75C34.125 33.1188 35.4051 30.0239 37.9654 27.4654C40.5256 24.9069 43.6205 23.6268 47.25 23.625V28.875C45.0625 28.875 43.2031 29.6406 41.6719 31.1719C40.1406 32.7031 39.375 34.5625 39.375 36.75H34.125ZM5.25 28.875V22.3125C5.25 21.2188 5.63325 20.2895 6.39975 19.5248C7.16625 18.76 8.0955 18.3768 9.1875 18.375H17.0625C19.0312 18.375 20.727 17.752 22.1497 16.506C23.5725 15.26 24.458 13.6955 24.8062 11.8125H30.0562C29.7937 14.4375 28.8313 16.7563 27.1688 18.7688C25.5063 20.7813 23.45 22.1813 21 22.9688V28.875H5.25ZM13.125 15.75C11.6812 15.75 10.4458 15.2364 9.4185 14.2091C8.39125 13.1819 7.87675 11.9455 7.875 10.5C7.87325 9.05452 8.38775 7.81902 9.4185 6.79352C10.4493 5.76802 11.6848 5.25352 13.125 5.25002C14.5652 5.24652 15.8016 5.76102 16.8341 6.79352C17.8666 7.82602 18.3803 9.06152 18.375 10.5C18.3697 11.9385 17.8561 13.1749 16.8341 14.2091C15.8121 15.2434 14.5757 15.757 13.125 15.75Z" fill="#DFD5C3"/>
</svg>
