<svg width="236" height="43" viewBox="0 0 236 43" fill="none" xmlns="http://www.w3.org/2000/svg">
<path d="M30.865 29.867L34.7888 41.9464L21.5072 32.2929L30.865 29.867ZM43 16.6803H26.5794L21.509 1.05518L16.4206 16.6839L0 16.6624L13.2977 26.332L8.20942 41.9446L21.5072 32.2929L29.7184 26.332L43 16.6803Z" fill="#00B67A"/>
<path d="M73.865 29.867L77.7888 41.9464L64.5072 32.2929L73.865 29.867ZM86 16.6803H69.5794L64.509 1.05518L59.4206 16.6839L43 16.6624L56.2977 26.332L51.2094 41.9446L64.5072 32.2929L72.7184 26.332L86 16.6803Z" fill="#00B67A"/>
<path d="M116.865 29.867L120.789 41.9464L107.507 32.2929L116.865 29.867ZM129 16.6803H112.579L107.509 1.05518L102.421 16.6839L86 16.6624L99.2977 26.332L94.2094 41.9446L107.507 32.2929L115.718 26.332L129 16.6803Z" fill="#00B67A"/>
<path d="M176.239 29.8118L180.465 41.8912L166.162 32.2377L176.239 29.8118ZM189.308 16.6251H171.624L166.163 1L160.684 16.6287L143 16.6072L157.321 26.2768L151.841 41.8894L166.162 32.2377L175.004 26.2768L189.308 16.6251Z" fill="#00B67A"/>
<path d="M222.547 29.8118L226.773 41.8912L212.469 32.2377L222.547 29.8118ZM235.615 16.6251H217.932L212.471 1L206.991 16.6287L189.308 16.6072L203.628 26.2768L198.149 41.8894L212.469 32.2377L221.312 26.2768L235.615 16.6251Z" fill="#00B67A"/>
</svg>
