<svg width="71" height="71" viewBox="0 0 71 71" fill="none" xmlns="http://www.w3.org/2000/svg">
<path d="M56.8 17.75C59.6246 17.75 62.3334 18.8721 64.3307 20.8693C66.328 22.8666 67.45 25.5754 67.45 28.4C68.3915 28.4 69.2945 28.774 69.9602 29.4398C70.626 30.1055 71 31.0085 71 31.95V39.05C71 39.9915 70.626 40.8945 69.9602 41.5602C69.2945 42.226 68.3915 42.6 67.45 42.6C67.45 45.4246 66.328 48.1334 64.3307 50.1307C62.3334 52.128 59.6246 53.25 56.8 53.25H10.65C7.82544 53.25 5.11658 52.128 3.11931 50.1307C1.12205 48.1334 0 45.4246 0 42.6L0 28.4C0 25.5754 1.12205 22.8666 3.11931 20.8693C5.11658 18.8721 7.82544 17.75 10.65 17.75H56.8ZM10.65 21.3C8.76696 21.3 6.96105 22.048 5.62954 23.3795C4.29803 24.711 3.55 26.517 3.55 28.4V42.6C3.55 44.483 4.29803 46.2889 5.62954 47.6205C6.96105 48.952 8.76696 49.7 10.65 49.7H56.8C58.683 49.7 60.4889 48.952 61.8205 47.6205C63.152 46.2889 63.9 44.483 63.9 42.6V28.4C63.9 26.517 63.152 24.711 61.8205 23.3795C60.4889 22.048 58.683 21.3 56.8 21.3H10.65ZM30.175 24.85C31.1165 24.85 32.0195 25.224 32.6852 25.8898C33.351 26.5555 33.725 27.4585 33.725 28.4V42.6C33.725 43.5415 33.351 44.4445 32.6852 45.1102C32.0195 45.776 31.1165 46.15 30.175 46.15H10.65C9.70848 46.15 8.80552 45.776 8.13977 45.1102C7.47402 44.4445 7.1 43.5415 7.1 42.6V28.4C7.1 27.4585 7.47402 26.5555 8.13977 25.8898C8.80552 25.224 9.70848 24.85 10.65 24.85H30.175Z" fill="#DFD5C3"/>
</svg>
