<svg width="41" height="51" viewBox="0 0 41 51" fill="none" xmlns="http://www.w3.org/2000/svg">
<path d="M19.0324 48.0875V31.7497L5.71825 42.0683C5.09237 42.5534 4.2958 42.7959 3.32853 42.7959C2.36127 42.7959 1.56469 42.5534 0.938816 42.0683C0.312938 41.5833 0 40.9659 0 40.2163C0 39.4666 0.312938 38.8493 0.938816 38.3642L17.6668 25.3997L0.938816 12.4353C0.312938 11.9502 0 11.3329 0 10.5832C0 9.83358 0.312938 9.21622 0.938816 8.73116C1.56469 8.24609 2.36127 8.00356 3.32853 8.00356C4.2958 8.00356 5.09237 8.24609 5.71825 8.73116L19.0324 19.0498V2.71195C19.0324 1.91821 19.3738 1.26822 20.0566 0.761992C20.7393 0.255761 21.5359 0.00176387 22.4463 0C22.9015 0 23.3282 0.0661446 23.7265 0.198435C24.1248 0.330725 24.4946 0.529161 24.836 0.793742L39.5157 12.1707C39.8571 12.4353 40.0994 12.7219 40.2428 13.0306C40.3862 13.3393 40.4568 13.67 40.4545 14.0228C40.4522 14.3755 40.3817 14.7063 40.2428 15.0149C40.104 15.3236 39.8616 15.6103 39.5157 15.8748L27.2257 25.3997L39.5157 34.9246C39.8571 35.1892 40.0994 35.4758 40.2428 35.7845C40.3862 36.0932 40.4568 36.4239 40.4545 36.7767C40.4522 37.1295 40.3817 37.4602 40.2428 37.7689C40.104 38.0776 39.8616 38.3642 39.5157 38.6288L24.836 50.0057C24.4946 50.2703 24.1248 50.4687 23.7265 50.601C23.3282 50.7333 22.9015 50.7995 22.4463 50.7995C21.5359 50.7995 20.7393 50.5455 20.0566 50.0375C19.3738 49.5295 19.0324 48.8795 19.0324 48.0875ZM25.8601 19.0498L32.3465 14.0228L25.8601 9.12803V19.0498ZM25.8601 41.6714L32.3465 36.7767L25.8601 31.7497V41.6714Z" fill="#DFD5C3"/>
</svg>
