<svg width="66" height="66" viewBox="0 0 66 66" fill="none" xmlns="http://www.w3.org/2000/svg">
<path d="M45.7448 65.3497V57.9979C42.6951 57.0176 40.1356 55.275 38.0662 52.7699C35.9968 50.2648 34.7987 47.3786 34.472 44.1111H41.0069C41.4426 46.4528 42.5459 48.3991 44.3169 49.9501C46.0879 51.501 48.1976 52.2776 50.646 52.2798H60.4485C61.8099 52.2798 62.9677 52.7568 63.9218 53.7109C64.8759 54.665 65.3519 55.8217 65.3497 57.181V65.3497H45.7448ZM55.5472 49.0123C53.7501 49.0123 52.2122 48.373 50.9335 47.0943C49.6549 45.8156 49.0144 44.2766 49.0123 42.4773C49.0101 40.678 49.6505 39.1401 50.9335 37.8636C52.2166 36.5871 53.7545 35.9467 55.5472 35.9424C57.34 35.938 58.879 36.5784 60.1642 37.8636C61.4494 39.1488 62.0887 40.6867 62.0822 42.4773C62.0757 44.2679 61.4363 45.8069 60.1642 47.0943C58.8921 48.3817 57.3531 49.021 55.5472 49.0123ZM22.8724 39.2098C22.8724 31.0411 25.7314 24.0977 31.4495 18.3796C37.1676 12.6615 44.111 9.80248 52.2798 9.80248V16.3374C45.9082 16.3374 40.5037 18.5572 36.0665 22.9966C31.6293 27.436 29.4095 32.8404 29.4074 39.2098H22.8724ZM35.9423 39.2098C35.9423 34.6898 37.5358 30.8375 40.7227 27.6527C43.9096 24.468 47.7619 22.8746 52.2798 22.8724V29.4074C49.5569 29.4074 47.2424 30.3604 45.3363 32.2664C43.4303 34.1725 42.4773 36.4869 42.4773 39.2098H35.9423ZM0 29.4074L0 21.2387C0 19.8772 0.477053 18.7205 1.43116 17.7686C2.38526 16.8167 3.54195 16.3396 4.90123 16.3374H14.7037C17.1543 16.3374 19.2651 15.562 21.0361 14.011C22.807 12.46 23.9093 10.5126 24.3428 8.16873H30.8777C30.551 11.4362 29.3529 14.3225 27.2835 16.8276C25.2141 19.3326 22.6546 21.0753 19.6049 22.0555V29.4074H0ZM9.80245 13.07C8.00534 13.07 6.46744 12.4306 5.18877 11.1519C3.91009 9.87327 3.26966 8.33429 3.26748 6.53499C3.26531 4.7357 3.90573 3.1978 5.18877 1.9213C6.4718 0.644806 8.00969 0.00437872 9.80245 2.20776e-05C11.5952 -0.00433457 13.1342 0.636093 14.4194 1.9213C15.7046 3.20651 16.344 4.74441 16.3374 6.53499C16.3309 8.32557 15.6916 9.86456 14.4194 11.1519C13.1473 12.4393 11.6083 13.0787 9.80245 13.07Z" fill="#18120F"/>
</svg>
