<svg width="79" height="79" viewBox="0 0 79 79" fill="none" xmlns="http://www.w3.org/2000/svg">
<path d="M39.2098 0C43.3695 0 47.3587 1.83601 50.3 5.10413C53.2413 8.37225 54.8937 12.8048 54.8937 17.4266C54.8937 20.6069 54.1488 23.5695 52.7764 26.1399H62.7357C66.4606 26.1399 69.5974 29.0588 70.3816 32.9362C78.2628 67.833 78.4196 68.7479 78.4196 69.7063C78.4196 72.0172 77.5934 74.2335 76.1228 75.8676C74.6521 77.5016 72.6575 78.4196 70.5777 78.4196H7.84196C5.76215 78.4196 3.76751 77.5016 2.29686 75.8676C0.826204 74.2335 0 72.0172 0 69.7063C0 68.7479 0.15684 67.833 8.03801 32.9362C8.82221 29.0588 11.959 26.1399 15.6839 26.1399H25.6432C24.2434 23.5006 23.5118 20.49 23.5259 17.4266C23.5259 12.8048 25.1783 8.37225 28.1196 5.10413C31.0609 1.83601 35.0502 0 39.2098 0ZM39.2098 8.71329C37.13 8.71329 35.1354 9.6313 33.6647 11.2654C32.1941 12.8994 31.3679 15.1157 31.3679 17.4266C31.3679 19.7375 32.1941 21.9538 33.6647 23.5878C35.1354 25.2219 37.13 26.1399 39.2098 26.1399C41.2896 26.1399 43.2843 25.2219 44.7549 23.5878C46.2256 21.9538 47.0518 19.7375 47.0518 17.4266C47.0518 15.1157 46.2256 12.8994 44.7549 11.2654C43.2843 9.6313 41.2896 8.71329 39.2098 8.71329ZM15.6839 34.8532V69.7063H23.5259V58.8147L27.4469 63.1714V69.7063H35.2888V60.993L27.4469 52.2798L35.2888 43.5665V34.8532H27.4469V41.3881L23.5259 45.7448V34.8532H15.6839ZM50.9728 34.8532C46.6205 34.8532 43.1308 38.7306 43.1308 43.5665V60.993C43.1308 65.8289 46.6205 69.7063 50.9728 69.7063H62.7357V47.9231H54.8937V60.993H50.9728V43.5665H62.7357V34.8532H50.9728Z" fill="#18120F"/>
</svg>
