<svg width="79" height="79" viewBox="0 0 79 79" fill="none" xmlns="http://www.w3.org/2000/svg">
<path d="M36.8936 74.2332V49.0123L11.0846 64.9413C9.87137 65.6901 8.32725 66.0645 6.45224 66.0645C4.57723 66.0645 3.0331 65.6901 1.81986 64.9413C0.606618 64.1925 0 63.2394 0 62.0822C0 60.925 0.606618 59.972 1.81986 59.2232L34.2465 39.2098L1.81986 19.1965C0.606618 18.4477 0 17.4947 0 16.3374C0 15.1802 0.606618 14.2272 1.81986 13.4784C3.0331 12.7296 4.57723 12.3552 6.45224 12.3552C8.32725 12.3552 9.87137 12.7296 11.0846 13.4784L36.8936 29.4074V4.18646C36.8936 2.96116 37.5553 1.95777 38.8789 1.17629C40.2024 0.394821 41.7465 0.0027229 43.5113 0C44.3936 0 45.2208 0.102108 45.9929 0.306326C46.765 0.510544 47.4819 0.816871 48.1436 1.22531L76.5997 18.788C77.2614 19.1965 77.7313 19.6389 78.0092 20.1155C78.2872 20.592 78.4239 21.1025 78.4195 21.6471C78.4151 22.1917 78.2784 22.7022 78.0092 23.1787C77.7401 23.6552 77.2703 24.0977 76.5997 24.5061L52.776 39.2098L76.5997 53.9135C77.2614 54.3219 77.7313 54.7644 78.0092 55.2409C78.2872 55.7174 78.4239 56.228 78.4195 56.7725C78.4151 57.3171 78.2784 57.8277 78.0092 58.3042C77.7401 58.7807 77.2703 59.2232 76.5997 59.6316L48.1436 77.1943C47.4819 77.6028 46.765 77.9091 45.9929 78.1133C45.2208 78.3175 44.3936 78.4196 43.5113 78.4196C41.7465 78.4196 40.2024 78.0275 38.8789 77.2433C37.5553 76.4591 36.8936 75.4558 36.8936 74.2332ZM50.1289 29.4074L62.7025 21.6471L50.1289 14.091V29.4074ZM50.1289 64.3286L62.7025 56.7725L50.1289 49.0123V64.3286Z" fill="#18120F"/>
</svg>
