<svg width="118" height="63" viewBox="0 0 118 63" fill="none" xmlns="http://www.w3.org/2000/svg">
<path d="M94.1036 0C98.7832 0 103.271 1.98289 106.58 5.51246C109.889 9.04203 111.748 13.8291 111.748 18.8207C113.308 18.8207 114.804 19.4817 115.907 20.6582C117.01 21.8347 117.629 23.4304 117.629 25.0943V37.6414C117.629 39.3053 117.01 40.901 115.907 42.0775C114.804 43.254 113.308 43.915 111.748 43.915C111.748 48.9066 109.889 53.6937 106.58 57.2233C103.271 60.7528 98.7832 62.7357 94.1036 62.7357H17.6444C12.9648 62.7357 8.4769 60.7528 5.16793 57.2233C1.85896 53.6937 0 48.9066 0 43.915L0 18.8207C0 13.8291 1.85896 9.04203 5.16793 5.51246C8.4769 1.98289 12.9648 0 17.6444 0L94.1036 0ZM17.6444 6.27357C14.5247 6.27357 11.5327 7.5955 9.32676 9.94854C7.12078 12.3016 5.88147 15.493 5.88147 18.8207V43.915C5.88147 47.2427 7.12078 50.4341 9.32676 52.7872C11.5327 55.1402 14.5247 56.4621 17.6444 56.4621H94.1036C97.2233 56.4621 100.215 55.1402 102.421 52.7872C104.627 50.4341 105.867 47.2427 105.867 43.915V18.8207C105.867 15.493 104.627 12.3016 102.421 9.94854C100.215 7.5955 97.2233 6.27357 94.1036 6.27357H17.6444ZM49.9925 12.5471C51.5524 12.5471 53.0484 13.2081 54.1513 14.3846C55.2543 15.5612 55.874 17.1569 55.874 18.8207V43.915C55.874 45.5789 55.2543 47.1746 54.1513 48.3511C53.0484 49.5276 51.5524 50.1886 49.9925 50.1886H17.6444C16.0846 50.1886 14.5886 49.5276 13.4856 48.3511C12.3826 47.1746 11.7629 45.5789 11.7629 43.915V18.8207C11.7629 17.1569 12.3826 15.5612 13.4856 14.3846C14.5886 13.2081 16.0846 12.5471 17.6444 12.5471H49.9925Z" fill="#18120F"/>
</svg>
