<svg width="80" height="80" viewBox="0 0 80 80" fill="none" xmlns="http://www.w3.org/2000/svg">
<g clip-path="url(#clip0_48_853)">
<path d="M80 40.2451C80 18.0151 62.09 -0.00488281 40 -0.00488281C17.9 0.000117188 -0.0100098 18.0151 -0.0100098 40.2501C-0.0100098 60.3351 14.62 76.9851 33.74 80.0051V51.8801H23.59V40.2501H33.75V31.3751C33.75 21.2901 39.725 15.7201 48.86 15.7201C53.24 15.7201 57.815 16.5051 57.815 16.5051V26.4051H52.77C47.805 26.4051 46.255 29.5101 46.255 32.6951V40.2451H57.345L55.575 51.8751H46.25V80.0001C65.37 76.9801 80 60.3301 80 40.2451Z" fill="#B5AEA1"/>
</g>
<defs>
<clipPath id="clip0_48_853">
<rect width="80" height="80" fill="white"/>
</clipPath>
</defs>
</svg>
