<svg width="80" height="80" viewBox="0 0 80 80" fill="none" xmlns="http://www.w3.org/2000/svg">
<path d="M52.5 40C52.5 43.3152 51.183 46.4946 48.8388 48.8388C46.4946 51.183 43.3152 52.5 40 52.5C36.6848 52.5 33.5054 51.183 31.1612 48.8388C28.817 46.4946 27.5 43.3152 27.5 40C27.5028 39.2861 27.5708 38.5917 27.7042 37.9167H23.3333V54.5708C23.3333 55.7292 24.2708 56.6667 25.4292 56.6667H54.575C55.1301 56.6656 55.6621 56.4443 56.0543 56.0513C56.4464 55.6584 56.6667 55.126 56.6667 54.5708V37.9167H52.2958C52.4292 38.5917 52.4972 39.2861 52.5 40ZM40 48.3333C41.0946 48.3331 42.1785 48.1172 43.1897 47.698C44.2009 47.2789 45.1196 46.6647 45.8934 45.8905C46.6672 45.1163 47.281 44.1972 47.6996 43.1858C48.1183 42.1744 48.3336 41.0905 48.3333 39.9958C48.3331 38.9012 48.1172 37.8174 47.698 36.8062C47.2789 35.795 46.6647 34.8762 45.8905 34.1024C45.1163 33.3286 44.1972 32.7148 43.1858 32.2962C42.1744 31.8776 41.0905 31.6622 39.9958 31.6625C37.7851 31.6631 35.6652 32.5418 34.1024 34.1054C32.5396 35.6689 31.6619 37.7893 31.6625 40C31.6631 42.2107 32.5418 44.3306 34.1054 45.8934C35.6689 47.4562 37.7893 48.3339 40 48.3333ZM50 31.25H54.9958C55.1603 31.2505 55.3233 31.2186 55.4755 31.156C55.6276 31.0935 55.7659 31.0015 55.8824 30.8854C55.9989 30.7692 56.0914 30.6312 56.1545 30.4793C56.2175 30.3274 56.25 30.1645 56.25 30V25.0042C56.2505 24.8393 56.2185 24.676 56.1557 24.5236C56.0928 24.3712 56.0005 24.2327 55.8839 24.1161C55.7673 23.9995 55.6288 23.9072 55.4764 23.8443C55.324 23.7815 55.1607 23.7494 54.9958 23.75H50C49.8351 23.7494 49.6718 23.7815 49.5194 23.8443C49.367 23.9072 49.2285 23.9995 49.1119 24.1161C48.9954 24.2327 48.903 24.3712 48.8402 24.5236C48.7773 24.676 48.7453 24.8393 48.7458 25.0042V30C48.75 30.6875 49.3125 31.25 50 31.25ZM40 0C29.3913 0 19.2172 4.21427 11.7157 11.7157C4.21427 19.2172 0 29.3913 0 40C0 50.6087 4.21427 60.7828 11.7157 68.2843C19.2172 75.7857 29.3913 80 40 80C45.2529 80 50.4543 78.9654 55.3073 76.9552C60.1604 74.945 64.5699 71.9986 68.2843 68.2843C71.9986 64.5699 74.945 60.1604 76.9552 55.3073C78.9654 50.4543 80 45.2529 80 40C80 34.7471 78.9654 29.5457 76.9552 24.6927C74.945 19.8396 71.9986 15.4301 68.2843 11.7157C64.5699 8.00138 60.1604 5.05501 55.3073 3.04482C50.4543 1.03463 45.2529 0 40 0ZM60.8333 56.2042C60.8333 58.75 58.75 60.8333 56.2042 60.8333H23.7958C21.25 60.8333 19.1667 58.75 19.1667 56.2042V23.7958C19.1667 21.25 21.25 19.1667 23.7958 19.1667H56.2042C58.75 19.1667 60.8333 21.25 60.8333 23.7958V56.2042Z" fill="#B5AEA1"/>
</svg>
