<svg width="52" height="46" viewBox="0 0 52 46" fill="none" xmlns="http://www.w3.org/2000/svg">
<path d="M25.7898 0C28.5257 0 31.1496 1.07275 33.0842 2.98225C35.0188 4.89175 36.1057 7.48159 36.1057 10.182C36.1057 12.0402 35.6157 13.7712 34.713 15.273H41.2636C43.7137 15.273 45.7768 16.9785 46.2926 19.244C51.4764 39.6335 51.5795 40.1681 51.5795 40.7281C51.5795 42.0783 51.0361 43.3733 50.0688 44.328C49.1015 45.2828 47.7896 45.8191 46.4216 45.8191H5.15795C3.78998 45.8191 2.47803 45.2828 1.51073 44.328C0.543426 43.3733 0 42.0783 0 40.7281C0 40.1681 0.10316 39.6335 5.2869 19.244C5.8027 16.9785 7.86588 15.273 10.3159 15.273H16.8665C15.9458 13.731 15.4646 11.9719 15.4739 10.182C15.4739 7.48159 16.5607 4.89175 18.4953 2.98225C20.4299 1.07275 23.0538 0 25.7898 0ZM25.7898 5.09101C24.4218 5.09101 23.1099 5.62739 22.1425 6.58214C21.1752 7.53689 20.6318 8.83181 20.6318 10.182C20.6318 11.5322 21.1752 12.8272 22.1425 13.7819C23.1099 14.7367 24.4218 15.273 25.7898 15.273C27.1577 15.273 28.4697 14.7367 29.437 13.7819C30.4043 12.8272 30.9477 11.5322 30.9477 10.182C30.9477 8.83181 30.4043 7.53689 29.437 6.58214C28.4697 5.62739 27.1577 5.09101 25.7898 5.09101ZM10.3159 20.3641V40.7281H15.4739V34.3644L18.0528 36.9099V40.7281H23.2108V35.6371L18.0528 30.5461L23.2108 25.4551V20.3641H18.0528V24.1823L15.4739 26.7278V20.3641H10.3159ZM33.5267 20.3641C30.664 20.3641 28.3687 22.6296 28.3687 25.4551V35.6371C28.3687 38.4626 30.664 40.7281 33.5267 40.7281H41.2636V28.0006H36.1057V35.6371H33.5267V25.4551H41.2636V20.3641H33.5267Z" fill="#DFD5C3"/>
</svg>
