<svg width="68" height="68" viewBox="0 0 68 68" fill="none" xmlns="http://www.w3.org/2000/svg">
<path d="M61.679 18.25L55.0979 44.417H20.6096L14.0276 18.25H61.679Z" stroke="#DFD5C3" stroke-width="0.5"/>
<path d="M7 10H11.6951L13.7073 18M13.7073 18L20.4146 44.6667H55.2927L62 18H13.7073Z" stroke="#DFD5C3" stroke-width="4" stroke-linecap="round" stroke-linejoin="round"/>
<path d="M20.4146 58C22.6372 58 24.439 56.2091 24.439 54C24.439 51.7909 22.6372 50 20.4146 50C18.192 50 16.3902 51.7909 16.3902 54C16.3902 56.2091 18.192 58 20.4146 58Z" stroke="#DFD5C3" stroke-width="4" stroke-linecap="round" stroke-linejoin="round"/>
<path d="M55.2927 58C57.5153 58 59.3171 56.2091 59.3171 54C59.3171 51.7909 57.5153 50 55.2927 50C53.0701 50 51.2683 51.7909 51.2683 54C51.2683 56.2091 53.0701 58 55.2927 58Z" stroke="#DFD5C3" stroke-width="4" stroke-linecap="round" stroke-linejoin="round"/>
</svg>
