<svg width="563" height="68" viewBox="0 0 563 68" fill="none" xmlns="http://www.w3.org/2000/svg">
<g filter="url(#filter0_d_348_4)">
<mask id="path-1-outside-1_348_4" maskUnits="userSpaceOnUse" x="4.2099" y="-0.817703" width="554" height="57" fill="black">
<rect fill="white" x="4.2099" y="-0.817703" width="554" height="57"/>
<path d="M13.3452 47.837H30.9703V53.1823H6.77192V2.83518H13.3452V47.837ZM49.4363 2.83518V34.6904C49.4363 39.1689 50.5198 42.4917 52.6868 44.6587C54.902 46.8257 57.9599 47.9092 61.8605 47.9092C65.713 47.9092 68.7228 46.8257 70.8898 44.6587C73.105 42.4917 74.2125 39.1689 74.2125 34.6904V2.83518H80.7858V34.6182C80.7858 38.8077 79.9431 42.3472 78.2576 45.2366C76.5722 48.0778 74.2848 50.1966 71.3954 51.5931C68.5542 52.9897 65.3518 53.6879 61.7883 53.6879C58.2247 53.6879 54.9983 52.9897 52.1089 51.5931C49.2677 50.1966 47.0044 48.0778 45.3189 45.2366C43.6816 42.3472 42.863 38.8077 42.863 34.6182V2.83518H49.4363ZM147.877 3.19635V53.1823H141.304V15.9095L124.69 53.1823H120.067L103.381 15.8373V53.1823H96.8077V3.19635H103.887L122.379 44.5142L140.87 3.19635H147.877ZM170.655 2.83518V53.1823H164.081V2.83518H170.655ZM226.498 53.1823H219.925L193.487 13.0924V53.1823H186.914V2.76295H193.487L219.925 42.7806V2.76295H226.498V53.1823ZM272.52 41.986H250.561L246.516 53.1823H239.582L257.785 3.12412H265.369L283.5 53.1823H276.565L272.52 41.986ZM270.642 36.6407L261.541 11.2143L252.439 36.6407H270.642ZM350.564 41.986H328.605L324.56 53.1823H317.625L335.828 3.12412H343.413L361.544 53.1823H354.609L350.564 41.986ZM348.686 36.6407L339.585 11.2143L330.483 36.6407H348.686ZM380.962 2.83518V34.6904C380.962 39.1689 382.046 42.4917 384.213 44.6587C386.428 46.8257 389.486 47.9092 393.386 47.9092C397.239 47.9092 400.249 46.8257 402.416 44.6587C404.631 42.4917 405.738 39.1689 405.738 34.6904V2.83518H412.312V34.6182C412.312 38.8077 411.469 42.3472 409.784 45.2366C408.098 48.0778 405.811 50.1966 402.921 51.5931C400.08 52.9897 396.878 53.6879 393.314 53.6879C389.751 53.6879 386.524 52.9897 383.635 51.5931C380.794 50.1966 378.53 48.0778 376.845 45.2366C375.208 42.3472 374.389 38.8077 374.389 34.6182V2.83518H380.962ZM444.008 2.83518C449.498 2.83518 454.242 3.87053 458.239 5.94124C462.284 7.96379 465.366 10.8772 467.484 14.6816C469.651 18.4859 470.735 22.9644 470.735 28.1171C470.735 33.2698 469.651 37.7483 467.484 41.5526C465.366 45.3088 462.284 48.1981 458.239 50.2207C454.242 52.1951 449.498 53.1823 444.008 53.1823H428.334V2.83518H444.008ZM444.008 47.7647C450.509 47.7647 455.47 46.0552 458.889 42.6361C462.308 39.1689 464.017 34.3292 464.017 28.1171C464.017 21.8568 462.284 16.969 458.816 13.4536C455.397 9.93819 450.461 8.1805 444.008 8.1805H434.907V47.7647H444.008ZM491.035 2.83518V53.1823H484.462V2.83518H491.035ZM530.12 53.6879C525.449 53.6879 521.187 52.6044 517.335 50.4374C513.482 48.2222 510.425 45.1643 508.161 41.2637C505.946 37.3149 504.838 32.8845 504.838 27.9726C504.838 23.0607 505.946 18.6544 508.161 14.7538C510.425 10.805 513.482 7.74709 517.335 5.58007C521.187 3.3649 525.449 2.25731 530.12 2.25731C534.84 2.25731 539.126 3.3649 542.978 5.58007C546.831 7.74709 549.864 10.7809 552.08 14.6816C554.295 18.5822 555.402 23.0126 555.402 27.9726C555.402 32.9327 554.295 37.363 552.08 41.2637C549.864 45.1643 546.831 48.2222 542.978 50.4374C539.126 52.6044 534.84 53.6879 530.12 53.6879ZM530.12 47.9814C533.636 47.9814 536.79 47.1628 539.583 45.5255C542.424 43.8882 544.639 41.5526 546.229 38.5188C547.866 35.485 548.685 31.9696 548.685 27.9726C548.685 23.9275 547.866 20.4121 546.229 17.4265C544.639 14.3926 542.448 12.0571 539.655 10.4198C536.862 8.78245 533.684 7.96379 530.12 7.96379C526.557 7.96379 523.379 8.78245 520.586 10.4198C517.792 12.0571 515.577 14.3926 513.94 17.4265C512.351 20.4121 511.556 23.9275 511.556 27.9726C511.556 31.9696 512.351 35.485 513.94 38.5188C515.577 41.5526 517.792 43.8882 520.586 45.5255C523.427 47.1628 526.605 47.9814 530.12 47.9814Z"/>
</mask>
<path d="M13.3452 47.837H30.9703V53.1823H6.77192V2.83518H13.3452V47.837ZM49.4363 2.83518V34.6904C49.4363 39.1689 50.5198 42.4917 52.6868 44.6587C54.902 46.8257 57.9599 47.9092 61.8605 47.9092C65.713 47.9092 68.7228 46.8257 70.8898 44.6587C73.105 42.4917 74.2125 39.1689 74.2125 34.6904V2.83518H80.7858V34.6182C80.7858 38.8077 79.9431 42.3472 78.2576 45.2366C76.5722 48.0778 74.2848 50.1966 71.3954 51.5931C68.5542 52.9897 65.3518 53.6879 61.7883 53.6879C58.2247 53.6879 54.9983 52.9897 52.1089 51.5931C49.2677 50.1966 47.0044 48.0778 45.3189 45.2366C43.6816 42.3472 42.863 38.8077 42.863 34.6182V2.83518H49.4363ZM147.877 3.19635V53.1823H141.304V15.9095L124.69 53.1823H120.067L103.381 15.8373V53.1823H96.8077V3.19635H103.887L122.379 44.5142L140.87 3.19635H147.877ZM170.655 2.83518V53.1823H164.081V2.83518H170.655ZM226.498 53.1823H219.925L193.487 13.0924V53.1823H186.914V2.76295H193.487L219.925 42.7806V2.76295H226.498V53.1823ZM272.52 41.986H250.561L246.516 53.1823H239.582L257.785 3.12412H265.369L283.5 53.1823H276.565L272.52 41.986ZM270.642 36.6407L261.541 11.2143L252.439 36.6407H270.642ZM350.564 41.986H328.605L324.56 53.1823H317.625L335.828 3.12412H343.413L361.544 53.1823H354.609L350.564 41.986ZM348.686 36.6407L339.585 11.2143L330.483 36.6407H348.686ZM380.962 2.83518V34.6904C380.962 39.1689 382.046 42.4917 384.213 44.6587C386.428 46.8257 389.486 47.9092 393.386 47.9092C397.239 47.9092 400.249 46.8257 402.416 44.6587C404.631 42.4917 405.738 39.1689 405.738 34.6904V2.83518H412.312V34.6182C412.312 38.8077 411.469 42.3472 409.784 45.2366C408.098 48.0778 405.811 50.1966 402.921 51.5931C400.08 52.9897 396.878 53.6879 393.314 53.6879C389.751 53.6879 386.524 52.9897 383.635 51.5931C380.794 50.1966 378.53 48.0778 376.845 45.2366C375.208 42.3472 374.389 38.8077 374.389 34.6182V2.83518H380.962ZM444.008 2.83518C449.498 2.83518 454.242 3.87053 458.239 5.94124C462.284 7.96379 465.366 10.8772 467.484 14.6816C469.651 18.4859 470.735 22.9644 470.735 28.1171C470.735 33.2698 469.651 37.7483 467.484 41.5526C465.366 45.3088 462.284 48.1981 458.239 50.2207C454.242 52.1951 449.498 53.1823 444.008 53.1823H428.334V2.83518H444.008ZM444.008 47.7647C450.509 47.7647 455.47 46.0552 458.889 42.6361C462.308 39.1689 464.017 34.3292 464.017 28.1171C464.017 21.8568 462.284 16.969 458.816 13.4536C455.397 9.93819 450.461 8.1805 444.008 8.1805H434.907V47.7647H444.008ZM491.035 2.83518V53.1823H484.462V2.83518H491.035ZM530.12 53.6879C525.449 53.6879 521.187 52.6044 517.335 50.4374C513.482 48.2222 510.425 45.1643 508.161 41.2637C505.946 37.3149 504.838 32.8845 504.838 27.9726C504.838 23.0607 505.946 18.6544 508.161 14.7538C510.425 10.805 513.482 7.74709 517.335 5.58007C521.187 3.3649 525.449 2.25731 530.12 2.25731C534.84 2.25731 539.126 3.3649 542.978 5.58007C546.831 7.74709 549.864 10.7809 552.08 14.6816C554.295 18.5822 555.402 23.0126 555.402 27.9726C555.402 32.9327 554.295 37.363 552.08 41.2637C549.864 45.1643 546.831 48.2222 542.978 50.4374C539.126 52.6044 534.84 53.6879 530.12 53.6879ZM530.12 47.9814C533.636 47.9814 536.79 47.1628 539.583 45.5255C542.424 43.8882 544.639 41.5526 546.229 38.5188C547.866 35.485 548.685 31.9696 548.685 27.9726C548.685 23.9275 547.866 20.4121 546.229 17.4265C544.639 14.3926 542.448 12.0571 539.655 10.4198C536.862 8.78245 533.684 7.96379 530.12 7.96379C526.557 7.96379 523.379 8.78245 520.586 10.4198C517.792 12.0571 515.577 14.3926 513.94 17.4265C512.351 20.4121 511.556 23.9275 511.556 27.9726C511.556 31.9696 512.351 35.485 513.94 38.5188C515.577 41.5526 517.792 43.8882 520.586 45.5255C523.427 47.1628 526.605 47.9814 530.12 47.9814Z" fill="#FFF4E4"/>
<path d="M13.3452 47.837H11.0879V50.0943H13.3452V47.837ZM30.9703 47.837H33.2276V45.5797H30.9703V47.837ZM30.9703 53.1823V55.4396H33.2276V53.1823H30.9703ZM6.77192 53.1823H4.51461V55.4396H6.77192V53.1823ZM6.77192 2.83518V0.577867H4.51461V2.83518H6.77192ZM13.3452 2.83518H15.6025V0.577867H13.3452V2.83518ZM13.3452 47.837V50.0943H30.9703V47.837V45.5797H13.3452V47.837ZM30.9703 47.837H28.713V53.1823H30.9703H33.2276V47.837H30.9703ZM30.9703 53.1823V50.925H6.77192V53.1823V55.4396H30.9703V53.1823ZM6.77192 53.1823H9.02923V2.83518H6.77192H4.51461V53.1823H6.77192ZM6.77192 2.83518V5.09249H13.3452V2.83518V0.577867H6.77192V2.83518ZM13.3452 2.83518H11.0879V47.837H13.3452H15.6025V2.83518H13.3452ZM49.4363 2.83518H51.6936V0.577867H49.4363V2.83518ZM52.6868 44.6587L51.0906 46.2548L51.0994 46.2636L51.1083 46.2723L52.6868 44.6587ZM70.8898 44.6587L69.3113 43.0451L69.3024 43.0538L69.2936 43.0625L70.8898 44.6587ZM74.2125 2.83518V0.577867H71.9552V2.83518H74.2125ZM80.7858 2.83518H83.0432V0.577867H80.7858V2.83518ZM78.2576 45.2366L80.1991 46.3882L80.2033 46.3811L80.2075 46.3739L78.2576 45.2366ZM71.3954 51.5931L70.4131 49.5608L70.4064 49.564L70.3997 49.5673L71.3954 51.5931ZM52.1089 51.5931L51.1132 53.619L51.1199 53.6223L51.1266 53.6255L52.1089 51.5931ZM45.3189 45.2366L43.355 46.3494L43.3661 46.369L43.3775 46.3882L45.3189 45.2366ZM42.863 2.83518V0.577867H40.6057V2.83518H42.863ZM49.4363 2.83518H47.179V34.6904H49.4363H51.6936V2.83518H49.4363ZM49.4363 34.6904H47.179C47.179 39.4918 48.3387 43.5029 51.0906 46.2548L52.6868 44.6587L54.283 43.0625C52.7009 41.4805 51.6936 38.846 51.6936 34.6904H49.4363ZM52.6868 44.6587L51.1083 46.2723C53.8475 48.9519 57.5301 50.1665 61.8605 50.1665V47.9092V45.6519C58.3896 45.6519 55.9565 44.6995 54.2653 43.0451L52.6868 44.6587ZM61.8605 47.9092V50.1665C66.1494 50.1665 69.7932 48.9476 72.4859 46.2548L70.8898 44.6587L69.2936 43.0625C67.6523 44.7038 65.2766 45.6519 61.8605 45.6519V47.9092ZM70.8898 44.6587L72.4683 46.2723C75.2796 43.5221 76.4699 39.5041 76.4699 34.6904H74.2125H71.9552C71.9552 38.8336 70.9303 41.4612 69.3113 43.0451L70.8898 44.6587ZM74.2125 34.6904H76.4699V2.83518H74.2125H71.9552V34.6904H74.2125ZM74.2125 2.83518V5.09249H80.7858V2.83518V0.577867H74.2125V2.83518ZM80.7858 2.83518H78.5285V34.6182H80.7858H83.0432V2.83518H80.7858ZM80.7858 34.6182H78.5285C78.5285 38.5078 77.747 41.632 76.3078 44.0992L78.2576 45.2366L80.2075 46.3739C82.1392 43.0624 83.0432 39.1077 83.0432 34.6182H80.7858ZM78.2576 45.2366L76.3162 44.0849C74.85 46.5566 72.8909 48.3632 70.4131 49.5608L71.3954 51.5931L72.3777 53.6255C75.6786 52.0301 78.2944 49.599 80.1991 46.3882L78.2576 45.2366ZM71.3954 51.5931L70.3997 49.5673C67.9053 50.7934 65.0503 51.4306 61.7883 51.4306V53.6879V55.9452C65.6534 55.9452 69.2031 55.186 72.3912 53.619L71.3954 51.5931ZM61.7883 53.6879V51.4306C58.527 51.4306 55.6419 50.7936 53.0912 49.5608L52.1089 51.5931L51.1266 53.6255C54.3547 55.1858 57.9225 55.9452 61.7883 55.9452V53.6879ZM52.1089 51.5931L53.1047 49.5673C50.6745 48.3729 48.7324 46.5663 47.2603 44.0849L45.3189 45.2366L43.3775 46.3882C45.2764 49.5892 47.8609 52.0204 51.1132 53.619L52.1089 51.5931ZM45.3189 45.2366L47.2828 44.1237C45.8819 41.6514 45.1203 38.518 45.1203 34.6182H42.863H40.6057C40.6057 39.0975 41.4813 43.0429 43.355 46.3494L45.3189 45.2366ZM42.863 34.6182H45.1203V2.83518H42.863H40.6057V34.6182H42.863ZM42.863 2.83518V5.09249H49.4363V2.83518V0.577867H42.863V2.83518ZM147.877 3.19635H150.134V0.939037H147.877V3.19635ZM147.877 53.1823V55.4396H150.134V53.1823H147.877ZM141.304 53.1823H139.047V55.4396H141.304V53.1823ZM141.304 15.9095H143.561L139.242 14.9905L141.304 15.9095ZM124.69 53.1823V55.4396H126.155L126.752 54.1013L124.69 53.1823ZM120.067 53.1823L118.006 54.1031L118.603 55.4396H120.067V53.1823ZM103.381 15.8373L105.442 14.9165L101.124 15.8373H103.381ZM103.381 53.1823V55.4396H105.638V53.1823H103.381ZM96.8077 53.1823H94.5504V55.4396H96.8077V53.1823ZM96.8077 3.19635V0.939037H94.5504V3.19635H96.8077ZM103.887 3.19635L105.947 2.27422L105.349 0.939037H103.887V3.19635ZM122.379 44.5142L120.318 45.4363L122.379 50.04L124.439 45.4363L122.379 44.5142ZM140.87 3.19635V0.939037H139.408L138.81 2.27422L140.87 3.19635ZM147.877 3.19635H145.62V53.1823H147.877H150.134V3.19635H147.877ZM147.877 53.1823V50.925H141.304V53.1823V55.4396H147.877V53.1823ZM141.304 53.1823H143.561V15.9095H141.304H139.047V53.1823H141.304ZM141.304 15.9095L139.242 14.9905L122.628 52.2633L124.69 53.1823L126.752 54.1013L143.366 16.8285L141.304 15.9095ZM124.69 53.1823V50.925H120.067V53.1823V55.4396H124.69V53.1823ZM120.067 53.1823L122.128 52.2614L105.442 14.9165L103.381 15.8373L101.32 16.7582L118.006 54.1031L120.067 53.1823ZM103.381 15.8373H101.124V53.1823H103.381H105.638V15.8373H103.381ZM103.381 53.1823V50.925H96.8077V53.1823V55.4396H103.381V53.1823ZM96.8077 53.1823H99.065V3.19635H96.8077H94.5504V53.1823H96.8077ZM96.8077 3.19635V5.45366H103.887V3.19635V0.939037H96.8077V3.19635ZM103.887 3.19635L101.826 4.11848L120.318 45.4363L122.379 44.5142L124.439 43.5921L105.947 2.27422L103.887 3.19635ZM122.379 44.5142L124.439 45.4363L142.931 4.11848L140.87 3.19635L138.81 2.27422L120.318 43.5921L122.379 44.5142ZM140.87 3.19635V5.45366H147.877V3.19635V0.939037H140.87V3.19635ZM170.655 2.83518H172.912V0.577867H170.655V2.83518ZM170.655 53.1823V55.4396H172.912V53.1823H170.655ZM164.081 53.1823H161.824V55.4396H164.081V53.1823ZM164.081 2.83518V0.577867H161.824V2.83518H164.081ZM170.655 2.83518H168.397V53.1823H170.655H172.912V2.83518H170.655ZM170.655 53.1823V50.925H164.081V53.1823V55.4396H170.655V53.1823ZM164.081 53.1823H166.339V2.83518H164.081H161.824V53.1823H164.081ZM164.081 2.83518V5.09249H170.655V2.83518V0.577867H164.081V2.83518ZM226.498 53.1823V55.4396H228.756V53.1823H226.498ZM219.925 53.1823L218.04 54.425L218.71 55.4396H219.925V53.1823ZM193.487 13.0924L195.372 11.8497L191.23 5.56917V13.0924H193.487ZM193.487 53.1823V55.4396H195.745V53.1823H193.487ZM186.914 53.1823H184.657V55.4396H186.914V53.1823ZM186.914 2.76295V0.505634H184.657V2.76295H186.914ZM193.487 2.76295L195.371 1.51867L194.701 0.505634H193.487V2.76295ZM219.925 42.7806L218.042 44.0249L222.182 50.2925V42.7806H219.925ZM219.925 2.76295V0.505634H217.668V2.76295H219.925ZM226.498 2.76295H228.756V0.505634H226.498V2.76295ZM226.498 53.1823V50.925H219.925V53.1823V55.4396H226.498V53.1823ZM219.925 53.1823L221.809 51.9396L195.372 11.8497L193.487 13.0924L191.603 14.3351L218.04 54.425L219.925 53.1823ZM193.487 13.0924H191.23V53.1823H193.487H195.745V13.0924H193.487ZM193.487 53.1823V50.925H186.914V53.1823V55.4396H193.487V53.1823ZM186.914 53.1823H189.171V2.76295H186.914H184.657V53.1823H186.914ZM186.914 2.76295V5.02026H193.487V2.76295V0.505634H186.914V2.76295ZM193.487 2.76295L191.604 4.00722L218.042 44.0249L219.925 42.7806L221.808 41.5363L195.371 1.51867L193.487 2.76295ZM219.925 42.7806H222.182V2.76295H219.925H217.668V42.7806H219.925ZM219.925 2.76295V5.02026H226.498V2.76295V0.505634H219.925V2.76295ZM226.498 2.76295H224.241V53.1823H226.498H228.756V2.76295H226.498ZM272.52 41.986L274.643 41.219L274.105 39.7287H272.52V41.986ZM250.561 41.986V39.7287H248.977L248.438 41.219L250.561 41.986ZM246.516 53.1823V55.4396H248.101L248.639 53.9493L246.516 53.1823ZM239.582 53.1823L237.46 52.4109L236.359 55.4396H239.582V53.1823ZM257.785 3.12412V0.866803H256.204L255.663 2.3527L257.785 3.12412ZM265.369 3.12412L267.492 2.3554L266.952 0.866803H265.369V3.12412ZM283.5 53.1823V55.4396H286.718L285.622 52.4136L283.5 53.1823ZM276.565 53.1823L274.442 53.9493L274.981 55.4396H276.565V53.1823ZM270.642 36.6407V38.898H273.848L272.768 35.88L270.642 36.6407ZM261.541 11.2143L263.666 10.4536L261.541 4.51635L259.415 10.4536L261.541 11.2143ZM252.439 36.6407L250.314 35.88L249.234 38.898H252.439V36.6407ZM272.52 41.986V39.7287H250.561V41.986V44.2433H272.52V41.986ZM250.561 41.986L248.438 41.219L244.393 52.4153L246.516 53.1823L248.639 53.9493L252.684 42.753L250.561 41.986ZM246.516 53.1823V50.925H239.582V53.1823V55.4396H246.516V53.1823ZM239.582 53.1823L241.703 53.9537L259.906 3.89554L257.785 3.12412L255.663 2.3527L237.46 52.4109L239.582 53.1823ZM257.785 3.12412V5.38143H265.369V3.12412V0.866803H257.785V3.12412ZM265.369 3.12412L263.247 3.89283L281.378 53.951L283.5 53.1823L285.622 52.4136L267.492 2.3554L265.369 3.12412ZM283.5 53.1823V50.925H276.565V53.1823V55.4396H283.5V53.1823ZM276.565 53.1823L278.688 52.4153L274.643 41.219L272.52 41.986L270.397 42.753L274.442 53.9493L276.565 53.1823ZM270.642 36.6407L272.768 35.88L263.666 10.4536L261.541 11.2143L259.415 11.9751L268.517 37.4015L270.642 36.6407ZM261.541 11.2143L259.415 10.4536L250.314 35.88L252.439 36.6407L254.565 37.4015L263.666 11.9751L261.541 11.2143ZM252.439 36.6407V38.898H270.642V36.6407V34.3834H252.439V36.6407ZM350.564 41.986L352.687 41.219L352.149 39.7287H350.564V41.986ZM328.605 41.986V39.7287H327.02L326.482 41.219L328.605 41.986ZM324.56 53.1823V55.4396H326.144L326.683 53.9493L324.56 53.1823ZM317.625 53.1823L315.504 52.4109L314.403 55.4396H317.625V53.1823ZM335.828 3.12412V0.866803H334.247L333.707 2.3527L335.828 3.12412ZM343.413 3.12412L345.535 2.3554L344.996 0.866803H343.413V3.12412ZM361.544 53.1823V55.4396H364.762L363.666 52.4136L361.544 53.1823ZM354.609 53.1823L352.486 53.9493L353.025 55.4396H354.609V53.1823ZM348.686 36.6407V38.898H351.892L350.811 35.88L348.686 36.6407ZM339.585 11.2143L341.71 10.4536L339.585 4.51635L337.459 10.4536L339.585 11.2143ZM330.483 36.6407L328.358 35.88L327.277 38.898H330.483V36.6407ZM350.564 41.986V39.7287H328.605V41.986V44.2433H350.564V41.986ZM328.605 41.986L326.482 41.219L322.437 52.4153L324.56 53.1823L326.683 53.9493L330.728 42.753L328.605 41.986ZM324.56 53.1823V50.925H317.625V53.1823V55.4396H324.56V53.1823ZM317.625 53.1823L319.747 53.9537L337.95 3.89554L335.828 3.12412L333.707 2.3527L315.504 52.4109L317.625 53.1823ZM335.828 3.12412V5.38143H343.413V3.12412V0.866803H335.828V3.12412ZM343.413 3.12412L341.291 3.89283L359.421 53.951L361.544 53.1823L363.666 52.4136L345.535 2.3554L343.413 3.12412ZM361.544 53.1823V50.925H354.609V53.1823V55.4396H361.544V53.1823ZM354.609 53.1823L356.732 52.4153L352.687 41.219L350.564 41.986L348.441 42.753L352.486 53.9493L354.609 53.1823ZM348.686 36.6407L350.811 35.88L341.71 10.4536L339.585 11.2143L337.459 11.9751L346.561 37.4015L348.686 36.6407ZM339.585 11.2143L337.459 10.4536L328.358 35.88L330.483 36.6407L332.608 37.4015L341.71 11.9751L339.585 11.2143ZM330.483 36.6407V38.898H348.686V36.6407V34.3834H330.483V36.6407ZM380.962 2.83518H383.22V0.577867H380.962V2.83518ZM384.213 44.6587L382.617 46.2548L382.625 46.2636L382.634 46.2723L384.213 44.6587ZM402.416 44.6587L400.837 43.0451L400.828 43.0538L400.82 43.0625L402.416 44.6587ZM405.738 2.83518V0.577867H403.481V2.83518H405.738ZM412.312 2.83518H414.569V0.577867H412.312V2.83518ZM409.784 45.2366L411.725 46.3882L411.729 46.3811L411.733 46.3739L409.784 45.2366ZM402.921 51.5931L401.939 49.5608L401.932 49.564L401.926 49.5673L402.921 51.5931ZM383.635 51.5931L382.639 53.619L382.646 53.6223L382.653 53.6255L383.635 51.5931ZM376.845 45.2366L374.881 46.3494L374.892 46.369L374.903 46.3882L376.845 45.2366ZM374.389 2.83518V0.577867H372.132V2.83518H374.389ZM380.962 2.83518H378.705V34.6904H380.962H383.22V2.83518H380.962ZM380.962 34.6904H378.705C378.705 39.4918 379.865 43.5029 382.617 46.2548L384.213 44.6587L385.809 43.0625C384.227 41.4805 383.22 38.846 383.22 34.6904H380.962ZM384.213 44.6587L382.634 46.2723C385.373 48.9519 389.056 50.1665 393.386 50.1665V47.9092V45.6519C389.916 45.6519 387.482 44.6995 385.791 43.0451L384.213 44.6587ZM393.386 47.9092V50.1665C397.675 50.1665 401.319 48.9476 404.012 46.2548L402.416 44.6587L400.82 43.0625C399.178 44.7038 396.803 45.6519 393.386 45.6519V47.9092ZM402.416 44.6587L403.994 46.2723C406.806 43.5221 407.996 39.5041 407.996 34.6904H405.738H403.481C403.481 38.8336 402.456 41.4612 400.837 43.0451L402.416 44.6587ZM405.738 34.6904H407.996V2.83518H405.738H403.481V34.6904H405.738ZM405.738 2.83518V5.09249H412.312V2.83518V0.577867H405.738V2.83518ZM412.312 2.83518H410.054V34.6182H412.312H414.569V2.83518H412.312ZM412.312 34.6182H410.054C410.054 38.5078 409.273 41.632 407.834 44.0992L409.784 45.2366L411.733 46.3739C413.665 43.0624 414.569 39.1077 414.569 34.6182H412.312ZM409.784 45.2366L407.842 44.0849C406.376 46.5566 404.417 48.3632 401.939 49.5608L402.921 51.5931L403.904 53.6255C407.205 52.0301 409.82 49.599 411.725 46.3882L409.784 45.2366ZM402.921 51.5931L401.926 49.5673C399.431 50.7934 396.576 51.4306 393.314 51.4306V53.6879V55.9452C397.179 55.9452 400.729 55.186 403.917 53.619L402.921 51.5931ZM393.314 53.6879V51.4306C390.053 51.4306 387.168 50.7936 384.617 49.5608L383.635 51.5931L382.653 53.6255C385.881 55.1858 389.448 55.9452 393.314 55.9452V53.6879ZM383.635 51.5931L384.631 49.5673C382.2 48.3729 380.258 46.5663 378.786 44.0849L376.845 45.2366L374.903 46.3882C376.802 49.5892 379.387 52.0204 382.639 53.619L383.635 51.5931ZM376.845 45.2366L378.809 44.1237C377.408 41.6514 376.646 38.518 376.646 34.6182H374.389H372.132C372.132 39.0975 373.007 43.0429 374.881 46.3494L376.845 45.2366ZM374.389 34.6182H376.646V2.83518H374.389H372.132V34.6182H374.389ZM374.389 2.83518V5.09249H380.962V2.83518V0.577867H374.389V2.83518ZM458.239 5.94124L457.2 7.94555L457.215 7.953L457.229 7.96024L458.239 5.94124ZM467.484 14.6816L465.512 15.7799L465.518 15.7894L465.523 15.7988L467.484 14.6816ZM467.484 41.5526L465.523 40.4353L465.518 40.4436L467.484 41.5526ZM458.239 50.2207L459.238 52.2446L459.248 52.2397L458.239 50.2207ZM428.334 53.1823H426.076V55.4396H428.334V53.1823ZM428.334 2.83518V0.577867H426.076V2.83518H428.334ZM458.889 42.6361L460.485 44.2323L460.49 44.2267L460.496 44.2211L458.889 42.6361ZM458.816 13.4536L457.198 15.0274L457.204 15.0331L457.209 15.0387L458.816 13.4536ZM434.907 8.1805V5.92318H432.65V8.1805H434.907ZM434.907 47.7647H432.65V50.0221H434.907V47.7647ZM444.008 2.83518V5.09249C449.215 5.09249 453.587 6.07372 457.2 7.94555L458.239 5.94124L459.277 3.93694C454.896 1.66735 449.781 0.577867 444.008 0.577867V2.83518ZM458.239 5.94124L457.229 7.96024C460.885 9.78803 463.623 12.3882 465.512 15.7799L467.484 14.6816L469.457 13.5832C467.108 9.36623 463.683 6.13956 459.248 3.92224L458.239 5.94124ZM467.484 14.6816L465.523 15.7988C467.464 19.2069 468.478 23.2865 468.478 28.1171H470.735H472.992C472.992 22.6423 471.839 17.7649 469.446 13.5643L467.484 14.6816ZM470.735 28.1171H468.478C468.478 32.9477 467.464 37.0273 465.523 40.4354L467.484 41.5526L469.446 42.6699C471.839 38.4693 472.992 33.5919 472.992 28.1171H470.735ZM467.484 41.5526L465.518 40.4436C463.632 43.7882 460.892 46.37 457.229 48.2017L458.239 50.2207L459.248 52.2397C463.675 50.0263 467.1 46.8294 469.451 42.6617L467.484 41.5526ZM458.239 50.2207L457.239 48.1968C453.616 49.9862 449.23 50.925 444.008 50.925V53.1823V55.4396C449.766 55.4396 454.867 54.404 459.238 52.2446L458.239 50.2207ZM444.008 53.1823V50.925H428.334V53.1823V55.4396H444.008V53.1823ZM428.334 53.1823H430.591V2.83518H428.334H426.076V53.1823H428.334ZM428.334 2.83518V5.09249H444.008V2.83518V0.577867H428.334V2.83518ZM444.008 47.7647V50.0221C450.896 50.0221 456.513 48.2044 460.485 44.2323L458.889 42.6361L457.292 41.04C454.426 43.906 450.123 45.5074 444.008 45.5074V47.7647ZM458.889 42.6361L460.496 44.2211C464.438 40.2235 466.275 34.7512 466.275 28.1171H464.017H461.76C461.76 33.9072 460.177 38.1143 457.281 41.0512L458.889 42.6361ZM464.017 28.1171H466.275C466.275 21.4302 464.411 15.9117 460.424 11.8685L458.816 13.4536L457.209 15.0387C460.156 18.0262 461.76 22.2834 461.76 28.1171H464.017ZM458.816 13.4536L460.435 11.8797C456.468 7.80186 450.87 5.92318 444.008 5.92318V8.1805V10.4378C450.052 10.4378 454.326 12.0745 457.198 15.0274L458.816 13.4536ZM444.008 8.1805V5.92318H434.907V8.1805V10.4378H444.008V8.1805ZM434.907 8.1805H432.65V47.7647H434.907H437.164V8.1805H434.907ZM434.907 47.7647V50.0221H444.008V47.7647V45.5074H434.907V47.7647ZM491.035 2.83518H493.292V0.577867H491.035V2.83518ZM491.035 53.1823V55.4396H493.292V53.1823H491.035ZM484.462 53.1823H482.204V55.4396H484.462V53.1823ZM484.462 2.83518V0.577867H482.204V2.83518H484.462ZM491.035 2.83518H488.778V53.1823H491.035H493.292V2.83518H491.035ZM491.035 53.1823V50.925H484.462V53.1823V55.4396H491.035V53.1823ZM484.462 53.1823H486.719V2.83518H484.462H482.204V53.1823H484.462ZM484.462 2.83518V5.09249H491.035V2.83518V0.577867H484.462V2.83518ZM517.335 50.4374L516.21 52.3943L516.219 52.3996L516.228 52.4048L517.335 50.4374ZM508.161 41.2637L506.193 42.3681L506.201 42.3824L506.209 42.3966L508.161 41.2637ZM508.161 14.7538L506.203 13.6313L506.198 13.6391L508.161 14.7538ZM517.335 5.58007L518.442 7.54749L518.451 7.54226L518.46 7.53695L517.335 5.58007ZM542.978 5.58007L541.853 7.53695L541.862 7.54226L541.871 7.54749L542.978 5.58007ZM552.08 14.6816L554.042 13.5668L554.042 13.5668L552.08 14.6816ZM542.978 50.4374L544.085 52.4048L544.094 52.3996L544.103 52.3943L542.978 50.4374ZM539.583 45.5255L538.456 43.5697L538.449 43.5739L538.441 43.5781L539.583 45.5255ZM546.229 38.5188L544.242 37.4467L544.235 37.459L544.229 37.4714L546.229 38.5188ZM546.229 17.4265L544.229 18.4739L544.239 18.4929L544.249 18.5118L546.229 17.4265ZM539.655 10.4198L538.514 12.3671L538.514 12.3671L539.655 10.4198ZM520.586 10.4198L521.727 12.3671L521.727 12.3671L520.586 10.4198ZM513.94 17.4265L511.953 16.3544L511.947 16.3659L513.94 17.4265ZM513.94 38.5188L511.94 39.5662L511.947 39.5786L511.953 39.5909L513.94 38.5188ZM520.586 45.5255L519.444 47.4729L519.451 47.4771L519.458 47.4813L520.586 45.5255ZM530.12 53.6879V51.4306C525.814 51.4306 521.937 50.4361 518.442 48.47L517.335 50.4374L516.228 52.4048C520.438 54.7728 525.084 55.9452 530.12 55.9452V53.6879ZM517.335 50.4374L518.46 48.4805C514.956 46.4658 512.181 43.6943 510.114 40.1308L508.161 41.2637L506.209 42.3966C508.668 46.6344 512.009 49.9787 516.21 52.3943L517.335 50.4374ZM508.161 41.2637L510.13 40.1593C508.12 36.5761 507.096 32.5315 507.096 27.9726H504.838H502.581C502.581 33.2376 503.772 38.0537 506.193 42.3681L508.161 41.2637ZM504.838 27.9726H507.096C507.096 23.4134 508.12 19.3976 510.124 15.8685L508.161 14.7538L506.198 13.6391C503.772 17.9112 502.581 22.708 502.581 27.9726H504.838ZM508.161 14.7538L510.12 15.8763C512.187 12.2698 514.955 9.50873 518.442 7.54749L517.335 5.58007L516.228 3.61265C512.01 5.98545 508.662 9.34019 506.203 13.6313L508.161 14.7538ZM517.335 5.58007L518.46 7.53695C521.953 5.52882 525.823 4.51462 530.12 4.51462V2.25731V-6.55225e-06C525.075 -6.55225e-06 520.422 1.20097 516.21 3.62319L517.335 5.58007ZM530.12 2.25731V4.51462C534.47 4.51462 538.364 5.53089 541.853 7.53695L542.978 5.58007L544.103 3.62319C539.887 1.1989 535.209 -6.55225e-06 530.12 -6.55225e-06V2.25731ZM542.978 5.58007L541.871 7.54749C545.361 9.51025 548.101 12.2468 550.117 15.7963L552.08 14.6816L554.042 13.5668C551.628 9.31502 548.3 5.98394 544.085 3.61265L542.978 5.58007ZM552.08 14.6816L550.117 15.7963C552.119 19.3221 553.145 23.361 553.145 27.9726H555.402H557.66C557.66 22.6641 556.47 17.8423 554.042 13.5668L552.08 14.6816ZM555.402 27.9726H553.145C553.145 32.5842 552.119 36.6231 550.117 40.149L552.08 41.2637L554.042 42.3784C556.47 38.1029 557.66 33.2812 557.66 27.9726H555.402ZM552.08 41.2637L550.117 40.149C548.099 43.7026 545.352 46.4682 541.853 48.4805L542.978 50.4374L544.103 52.3943C548.309 49.9762 551.63 46.626 554.042 42.3784L552.08 41.2637ZM542.978 50.4374L541.871 48.47C538.38 50.4341 534.479 51.4306 530.12 51.4306V53.6879V55.9452C535.2 55.9452 539.871 54.7748 544.085 52.4048L542.978 50.4374ZM530.12 47.9814V50.2388C534.002 50.2388 537.556 49.3304 540.725 47.4729L539.583 45.5255L538.441 43.5781C536.024 44.9952 533.27 45.7241 530.12 45.7241V47.9814ZM539.583 45.5255L540.71 47.4813C543.939 45.6203 546.45 42.9618 548.228 39.5662L546.229 38.5188L544.229 37.4714C542.829 40.1435 540.909 42.156 538.456 43.5697L539.583 45.5255ZM546.229 38.5188L548.215 39.5909C550.057 36.1786 550.942 32.2838 550.942 27.9726H548.685H546.427C546.427 31.6553 545.675 34.7913 544.242 37.4467L546.229 38.5188ZM548.685 27.9726H550.942C550.942 23.6194 550.059 19.7168 548.208 16.3411L546.229 17.4265L544.249 18.5118C545.673 21.1075 546.427 24.2356 546.427 27.9726H548.685ZM546.229 17.4265L548.228 16.379C546.455 12.9935 543.976 10.336 540.797 8.47237L539.655 10.4198L538.514 12.3671C540.921 13.7781 542.824 15.7918 544.229 18.4739L546.229 17.4265ZM539.655 10.4198L540.797 8.47237C537.623 6.61209 534.044 5.70648 530.12 5.70648V7.96379V10.2211C533.324 10.2211 536.101 10.9528 538.514 12.3671L539.655 10.4198ZM530.12 7.96379V5.70648C526.197 5.70648 522.617 6.61209 519.444 8.47237L520.586 10.4198L521.727 12.3671C524.14 10.9528 526.917 10.2211 530.12 10.2211V7.96379ZM520.586 10.4198L519.444 8.47237C516.271 10.3323 513.774 12.9815 511.953 16.3544L513.94 17.4265L515.926 18.4985C517.381 15.8038 519.314 13.7818 521.727 12.3671L520.586 10.4198ZM513.94 17.4265L511.947 16.3659C510.153 19.7363 509.299 23.6298 509.299 27.9726H511.556H513.814C513.814 24.2252 514.548 21.088 515.933 18.487L513.94 17.4265ZM511.556 27.9726H509.299C509.299 32.2734 510.156 36.1591 511.94 39.5662L513.94 38.5188L515.94 37.4714C514.546 34.8108 513.814 31.6658 513.814 27.9726H511.556ZM513.94 38.5188L511.953 39.5909C513.774 42.9637 516.271 45.613 519.444 47.4729L520.586 45.5255L521.727 43.5781C519.314 42.1634 517.381 40.1415 515.926 37.4467L513.94 38.5188ZM520.586 45.5255L519.458 47.4813C522.667 49.3303 526.239 50.2388 530.12 50.2388V47.9814V45.7241C526.971 45.7241 524.186 44.9952 521.713 43.5697L520.586 45.5255Z" fill="#FFF4E4" mask="url(#path-1-outside-1_348_4)"/>
</g>
<defs>
<filter id="filter0_d_348_4" x="-3.91006e-05" y="0" width="562.174" height="67.2318" filterUnits="userSpaceOnUse" color-interpolation-filters="sRGB">
<feFlood flood-opacity="0" result="BackgroundImageFix"/>
<feColorMatrix in="SourceAlpha" type="matrix" values="0 0 0 0 0 0 0 0 0 0 0 0 0 0 0 0 0 0 127 0" result="hardAlpha"/>
<feOffset dy="6.77194"/>
<feGaussianBlur stdDeviation="2.25731"/>
<feComposite in2="hardAlpha" operator="out"/>
<feColorMatrix type="matrix" values="0 0 0 0 0 0 0 0 0 0 0 0 0 0 0 0 0 0 1 0"/>
<feBlend mode="normal" in2="BackgroundImageFix" result="effect1_dropShadow_348_4"/>
<feBlend mode="normal" in="SourceGraphic" in2="effect1_dropShadow_348_4" result="shape"/>
</filter>
</defs>
</svg>
