<svg width="68" height="68" viewBox="0 0 68 68" fill="none" xmlns="http://www.w3.org/2000/svg">
<path d="M11.3333 51C11.3333 47.9942 12.5274 45.1115 14.6528 42.9861C16.7782 40.8607 19.6609 39.6667 22.6667 39.6667H45.3333C48.3391 39.6667 51.2218 40.8607 53.3472 42.9861C55.4726 45.1115 56.6667 47.9942 56.6667 51C56.6667 52.5029 56.0696 53.9442 55.0069 55.0069C53.9442 56.0696 52.5029 56.6667 51 56.6667H17C15.4971 56.6667 14.0558 56.0696 12.9931 55.0069C11.9304 53.9442 11.3333 52.5029 11.3333 51Z" stroke="#DFD5C3" stroke-width="4" stroke-linejoin="round"/>
<path d="M34 28.3333C38.6944 28.3333 42.5 24.5277 42.5 19.8333C42.5 15.1389 38.6944 11.3333 34 11.3333C29.3056 11.3333 25.5 15.1389 25.5 19.8333C25.5 24.5277 29.3056 28.3333 34 28.3333Z" stroke="#DFD5C3" stroke-width="4"/>
</svg>
