<svg width="78" height="78" viewBox="0 0 78 78" fill="none" xmlns="http://www.w3.org/2000/svg">
<path d="M38.75 0C31.086 0 23.5941 2.27265 17.2217 6.53055C10.8493 10.7885 5.88258 16.8404 2.94969 23.921C0.0167898 31.0017 -0.750589 38.793 0.744588 46.3097C2.23977 53.8265 5.93034 60.7311 11.3496 66.1504C16.7689 71.5697 23.6735 75.2603 31.1903 76.7554C38.707 78.2506 46.4984 77.4832 53.579 74.5503C60.6596 71.6174 66.7116 66.6508 70.9695 60.2783C75.2274 53.9059 77.5 46.414 77.5 38.75C77.4898 28.476 73.4039 18.6258 66.1391 11.3609C58.8743 4.09613 49.024 0.0102586 38.75 0ZM61.7636 29.8879V32.3911C61.7637 32.5827 61.7254 32.7724 61.6509 32.9489C61.5765 33.1254 61.4674 33.2852 61.3301 33.4189C61.1928 33.5525 61.0302 33.6573 60.8517 33.7271C60.6733 33.7968 60.4827 33.8301 60.2911 33.8249C56.1998 33.5358 52.2855 32.0419 49.042 29.5314V47.8524C49.0411 49.8801 48.6363 51.8872 47.8512 53.7568C47.0662 55.6263 45.9166 57.3207 44.4695 58.7411C43.0106 60.1987 41.2755 61.3504 39.3658 62.1289C37.4562 62.9074 35.4104 63.297 33.3483 63.2749C29.2015 63.2689 25.2214 61.6418 22.258 58.7411C20.3724 56.8401 19.0142 54.4808 18.3171 51.8956C17.62 49.3103 17.608 46.5881 18.2823 43.9968C18.8984 41.509 20.1423 39.2227 21.8976 37.3589C23.2067 35.7588 24.8569 34.4716 26.7274 33.5913C28.598 32.711 30.6416 32.2599 32.7089 32.271H35.8864V38.8701C35.8878 39.0618 35.8483 39.2515 35.7706 39.4267C35.6929 39.6019 35.5788 39.7586 35.4357 39.8862C35.2927 40.0138 35.1242 40.1094 34.9413 40.1667C34.7584 40.2241 34.5654 40.2418 34.3751 40.2186C32.5302 39.6645 30.5422 39.8483 28.8302 40.7313C27.1181 41.6143 25.8158 43.1276 25.1978 44.9521C24.5797 46.7766 24.6942 48.7699 25.5171 50.5116C26.34 52.2533 27.807 53.6076 29.6089 54.2888C30.6551 54.8894 31.8254 55.242 33.0266 55.3234C33.9566 55.3621 34.8866 55.2459 35.7701 54.9669C37.2451 54.4693 38.528 53.5239 39.44 52.2624C40.352 51.001 40.8477 49.4864 40.858 47.9299V14.5468C40.858 14.1774 41.0045 13.8232 41.2652 13.5617C41.526 13.3002 41.8798 13.1528 42.2491 13.1518H47.7323C48.0885 13.1522 48.4311 13.2889 48.6898 13.5339C48.9485 13.7789 49.1036 14.1135 49.1234 14.4693C49.3233 16.179 49.8663 17.8308 50.7199 19.3257C51.5735 20.8205 52.7202 22.1276 54.0911 23.1686C55.9438 24.5593 58.1441 25.4121 60.45 25.6331C60.7954 25.6627 61.1184 25.8163 61.3592 26.0657C61.6 26.315 61.7423 26.6432 61.7598 26.9894L61.7636 29.8879Z" fill="#B5AEA1"/>
</svg>
